<defs>
<font horiz-adv-x="397" ><font-face
    font-family="arsenal-regular"
    units-per-em="1000"
    panose-1="2 1 5 4 6 2 0 2 0 4"
    ascent="936"
    descent="-258"
    alphabetic="0" />
<missing-glyph horiz-adv-x="632" d="M396 436V486H536V339H481V436H396ZM236 486V436H151V339H96V486H236ZM151 186V90H236V39H96V186H151ZM396 39V90H481V186H536V39H396Z" />
<glyph unicode=" " glyph-name="space" horiz-adv-x="233" />
<glyph unicode="!" glyph-name="exclam" horiz-adv-x="276" d="M108 71Q122 83 139 83Q158 83 171 71Q184 58 184 37T171 3Q158 -9 139 -9Q122 -9 108 3Q94 16 94 37T108 71ZM180 750V667L161 212H117L99 667V750H180Z" />
<glyph unicode="&quot;" glyph-name="quotedbl" horiz-adv-x="299" d="M242 748L220 518H179L175 750L242 748ZM101 748L79 518H38L34 750L101 748Z" />
<glyph unicode="#" glyph-name="numbersign" horiz-adv-x="480" d="M200 389L173 259H278L305 389H200ZM374 547L350 431H430V389H341L314 259H430V218H305L277 80L243 90L269 218H164L138 91L104 101L128 218H49V259H137L164 389H49V431H173L202 568L236 558L209
431H313L340 557L374 547Z" />
<glyph unicode="$" glyph-name="dollar" horiz-adv-x="408" d="M36 130L61 165Q66 158 75 147T116 118T187 100Q243 100 271 128T300 196Q300 233 275 255T214 289T143 315T82 359T57 437Q57 491 90 526T181 572L186 700H228L234 575Q264 574 294 565T340 546L355
537L343 494Q290 534 229 534Q183 534 155 511T126 453Q126 416 152 393T214 358T287 331T350 287T376 208Q376 150 340 109T234 58L230 -50H188L182 56Q152 58 126 66T84 85T57 106T40 123L36 130Z" />
<glyph unicode="%" glyph-name="percent" horiz-adv-x="802" d="M695 175Q695 246 670 283T598 321Q501 321 501 175Q501 104 526 66T597 28Q644 28 669 66T695 175ZM755 174Q755 88 713 37T598 -14Q523 -14 482 37T441 174T483 311T598 363Q670 363 712 311T755
174ZM302 475Q302 546 277 583T205 621Q108 621 108 475Q108 404 133 366T204 328Q251 328 276 366T302 475ZM362 474Q362 388 320 337T205 286Q130 286 89 337T48 474T90 611T205 663Q277 663 319 611T362 474ZM560 631L279 2L236 12L517 641L560 631Z" />
<glyph unicode="&amp;" glyph-name="ampersand" horiz-adv-x="603" d="M374 103Q373 112 373 134V313H239Q193 311 159 275T124 176Q124 36 259 36Q342 36 374 103ZM570 356V313H441V138Q441 78 456 57T506 36Q524 36 541 39T566 46L574 49L576 9Q549 -10 484
-10Q406 -10 385 49Q338 -10 248 -10Q146 -10 97 41T48 175Q48 238 85 278T176 336Q135 356 108 394T81 489Q81 566 128 612T258 659Q289 659 320 652T368 636L384 628L376 585Q331 614 273 614Q216 614 186 580T155 484Q155 421 184 389T252 356H375L408 500H441V356H570Z"
/>
<glyph unicode="&apos;" glyph-name="quotesingle" horiz-adv-x="158" d="M101 748L79 518H38L34 750L101 748Z" />
<glyph unicode="(" glyph-name="parenleft" horiz-adv-x="307" d="M228 728L266 707Q261 701 254 690T228 638T194 551T167 429T155 272Q155 190 166 116T194 -6T226 -90T254 -142L266 -158L230 -179Q224 -173 215 -162T180 -109T136 -21T101 106T85 272T99 437T135
566T177 655T214 711L228 728Z" />
<glyph unicode=")" glyph-name="parenright" horiz-adv-x="307" d="M77 -179L40 -158Q45 -152 52 -141T78 -88T112 -1T139 120T151 277T140 432T112 554T80 638T52 690L40 707L77 728Q83 722 92 711T127 658T171 570T205 443T221 277T206 112T170 -17T128 -106T92
-162L77 -179Z" />
<glyph unicode="*" glyph-name="asterisk" horiz-adv-x="393" d="M40 597L183 518L163 704H230L208 518L353 597L373 527L216 491L327 354L272 310L196 472L120 310L66 354L176 490L19 527L40 597Z" />
<glyph unicode="+" glyph-name="plus" horiz-adv-x="408" d="M227 475V301H373V254H227V80H183V254H34V301H183V475H227Z" />
<glyph unicode="," glyph-name="comma" horiz-adv-x="226" d="M81 89Q92 99 109 99Q127 99 138 89L143 82Q154 66 154 34Q154 -14 129 -72T66 -161L45 -139Q76 -110 95 -66T113 16H110Q94 16 81 27Q69 39 69 58Q69 76 81 89Z" />
<glyph unicode="-" glyph-name="hyphen" horiz-adv-x="297" d="M263 301V254H34V301H263Z" />
<glyph unicode="." glyph-name="period" horiz-adv-x="243" d="M89 71Q102 83 120 83T152 71Q165 58 165 37T152 3Q138 -9 120 -9T89 3Q75 16 75 37T89 71Z" />
<glyph unicode="/" glyph-name="slash" horiz-adv-x="417" d="M376 750H431L57 -250H1L376 750Z" />
<glyph unicode="0" glyph-name="zero" horiz-adv-x="562" d="M281 613Q207 613 172 543T136 324Q136 174 171 105T281 36T390 105T426 324T390 543T281 613ZM169 659T281 659T449 571T506 324T450 78T281 -10T113 77T56 324T112 571Z" />
<glyph unicode="1" glyph-name="one" horiz-adv-x="369" d="M199 650H259V0H187V592L67 525L50 564L199 650Z" />
<glyph unicode="2" glyph-name="two" horiz-adv-x="475" d="M429 68V0H43V60Q54 64 84 89T157 157T238 249T304 359T331 472Q331 543 303 576T205 610Q172 610 137 596T82 568L63 555L55 600Q63 607 77 616T134 642T216 659Q316 659 363 611T411 478Q411 420 381
357T302 238T210 143T122 68H429Z" />
<glyph unicode="3" glyph-name="three" horiz-adv-x="475" d="M172 306L146 336L330 581H69L73 650H400V603L220 368Q232 371 247 371Q327 371 376 322T426 190Q426 97 367 44T214 -10Q160 -10 117 8T56 44L39 61L63 100Q69 93 80 83T129 55T206 38Q277 38 313
77T350 190Q350 256 320 292T230 328Q215 328 201 323T179 312L172 306Z" />
<glyph unicode="4" glyph-name="four" horiz-adv-x="492" d="M193 659L262 650Q206 436 86 209H315L332 555H389V209H460V169L389 164V0H315V164H35L30 202Q122 384 193 659Z" />
<glyph unicode="5" glyph-name="five" horiz-adv-x="465" d="M390 650L387 580H156L139 385Q174 398 211 398Q305 398 362 346T420 205Q420 106 354 48T191 -10Q159 -10 130 -3T83 14T52 35T32 53L26 60L52 97Q57 90 67 81T112 55T187 38Q260 38 302 81T344 204Q344
274 306 315T205 356Q174 356 151 347T119 328L118 325L88 329L118 650H390Z" />
<glyph unicode="6" glyph-name="six" horiz-adv-x="517" d="M264 369Q184 369 136 296L137 295Q132 270 132 227Q132 34 268 34Q333 34 363 82T393 209Q393 281 361 325T264 369ZM405 625L395 581Q342 613 283 613Q137 613 128 348Q188 410 273 410Q364 410 416
355T469 208Q469 114 417 52T268 -10Q166 -10 111 57T56 250Q56 290 59 323Q69 492 126 575T277 659Q308 659 340 651T388 634L405 625Z" />
<glyph unicode="7" glyph-name="seven" horiz-adv-x="421" d="M402 650V590Q336 467 276 302T188 0H109Q158 226 340 578H41V650H402Z" />
<glyph unicode="8" glyph-name="eight" horiz-adv-x="502" d="M138 490Q138 450 150 421T182 378T218 358T252 350Q268 351 283 357T319 376T351 419T364 488Q364 618 251 618T138 490ZM374 171Q374 212 360 241T324 285T284 305T248 313Q231 311 215 305T177
285T142 242T128 172Q128 31 251 31T374 171ZM442 490Q442 373 320 333Q455 297 455 168Q455 77 401 34T251 -10T102 34T48 170Q48 288 180 332Q61 369 61 493Q61 571 112 615T251 659T390 615T442 490Z" />
<glyph unicode="9" glyph-name="nine" horiz-adv-x="517" d="M253 268Q307 268 339 295T381 353Q384 380 384 422Q384 519 354 567T255 615Q190 615 157 563T124 434Q124 361 156 315T253 268ZM95 38L114 81Q118 76 127 69T165 49T228 36Q298 36 341 100T388 295Q336
227 244 227Q154 227 101 283T48 431Q48 525 103 592T255 659Q356 659 408 592T461 399Q461 351 459 329Q452 164 390 77T231 -10Q188 -10 154 2T108 26L95 38Z" />
<glyph unicode=":" glyph-name="colon" horiz-adv-x="245" d="M89 71Q102 83 120 83T152 71Q165 58 165 37T152 3Q138 -9 120 -9T89 3Q75 16 75 37T89 71ZM89 450Q102 462 120 462T152 450Q165 437 165 416T152 382Q138 370 120 370T89 382Q75 395 75 416T89 450Z" />
<glyph unicode=";" glyph-name="semicolon" horiz-adv-x="243" d="M89 450Q102 462 120 462T152 450Q165 437 165 416T152 382Q138 370 120 370T89 382Q75 395 75 416T89 450ZM91 89Q102 99 119 99Q137 99 148 89L153 82Q164 66 164 34Q164 -14 139 -72T76 -161L55
-139Q86 -110 105 -66T123 16H120Q104 16 91 27Q79 39 79 58Q79 76 91 89Z" />
<glyph unicode="&lt;" glyph-name="less" horiz-adv-x="368" d="M327 147L301 118L61 318L301 517L326 488L130 318L327 147Z" />
<glyph unicode="=" glyph-name="equal" horiz-adv-x="470" d="M436 396V349H34V396H436ZM436 206V159H34V206H436Z" />
<glyph unicode="&gt;" glyph-name="greater" horiz-adv-x="368" d="M42 488L67 517L308 318L67 118L42 147L236 318L42 488Z" />
<glyph unicode="?" glyph-name="question" horiz-adv-x="411" d="M115 71Q128 83 146 83T178 71Q191 58 191 37T178 3Q164 -9 146 -9T115 3Q101 16 101 37T115 71ZM48 662L40 705Q46 711 57 720T109 744T193 759Q280 759 324 710T368 592Q368 545 353 509T314
454T263 412T212 370T173 315T157 232Q157 218 158 210L127 207Q122 235 122 267Q122 315 139 349T180 405T228 446T269 501T286 582Q286 641 259 677T175 713Q152 713 131 708T95 695T70 681T53 668L48 662Z" />
<glyph unicode="@" glyph-name="at" horiz-adv-x="831" d="M424 23Q489 23 516 90V320Q493 372 428 372Q368 372 338 324T307 189Q307 23 424 23ZM683 -13T608 -13T520 41Q485 -14 410 -14T290 37T245 189Q245 286 293 347T421 408Q481 408 521 368L535 394H567V90Q567
52 579 38T614 23Q660 23 691 82T723 282Q723 436 653 514T446 593Q291 593 206 492T121 188Q121 4 204 -90T434 -185Q479 -185 518 -175T583 -151T626 -123T653 -99L661 -89L680 -125Q677 -129 672 -136T645 -161T599 -193T529 -218T434 -230Q250 -230 153 -122T56
188Q56 398 156 516T446 634Q608 634 694 542T781 284Q781 132 732 60Z" />
<glyph unicode="A" glyph-name="A" horiz-adv-x="568" d="M273 592L158 241H386L273 592ZM242 650H331L546 0H467L399 200H144L76 0H23L242 650Z" />
<glyph unicode="B" glyph-name="B" horiz-adv-x="542" d="M170 356H288Q323 356 356 386T390 483Q390 544 353 575T255 606H170V356ZM292 315H170V44H256Q419 44 419 187Q419 251 384 283T292 315ZM94 0V650H258Q356 650 409 606T463 488Q463 390 369 341Q427
325 460 285T494 184Q494 96 436 48T259 0H94Z" />
<glyph unicode="C" glyph-name="C" horiz-adv-x="570" d="M510 556Q500 562 484 571T421 594T336 609Q239 609 184 536T129 321Q129 182 185 111T342 40Q376 40 406 50T457 74T493 103T515 128L522 138L550 106Q547 101 542 94T518 66T476 31T415 3T333 -10Q198
-10 123 77T48 319Q48 475 124 567T328 659Q374 659 421 646T494 618L519 604L510 556Z" />
<glyph unicode="D" glyph-name="D" horiz-adv-x="634" d="M292 602H170V48H293Q505 48 505 323Q505 602 292 602ZM94 0V650H292Q432 650 509 566T587 323Q587 166 511 83T292 0H94Z" />
<glyph unicode="E" glyph-name="E" horiz-adv-x="507" d="M466 48V0H94V650H444V602H170V352H421V306H170V48H466Z" />
<glyph unicode="F" glyph-name="F" horiz-adv-x="464" d="M412 343V297H170V0H94V650H451V602H170V343H412Z" />
<glyph unicode="G" glyph-name="G" horiz-adv-x="620" d="M543 338V0H506L487 71Q431 -10 315 -10Q188 -10 118 78T48 323Q48 482 124 570T339 659Q385 659 432 646T505 618L530 604L521 556Q511 562 495 571T432 594T347 609Q236 609 183 538T129 323Q129 183
181 112T326 40Q367 40 398 53T445 87T468 121T479 148V295H346V338H543Z" />
<glyph unicode="H" glyph-name="H" horiz-adv-x="638" d="M543 650V0H467V312H170V0H94V650H170V358H467V650H543Z" />
<glyph unicode="I" glyph-name="I" horiz-adv-x="265" d="M170 650V0H94V650H170Z" />
<glyph unicode="J" glyph-name="J" horiz-adv-x="362" d="M26 71Q29 67 34 62T60 47T107 38Q200 38 200 191V650H275V191Q275 79 235 35T124 -10Q83 -10 54 0T15 22L6 32L26 71Z" />
<glyph unicode="K" glyph-name="K" horiz-adv-x="580" d="M94 0V650H170V296L249 366L468 650H529L301 360L560 0H465L245 302L170 239V0H94Z" />
<glyph unicode="L" glyph-name="L" horiz-adv-x="471" d="M459 48V0H94V650H170V48H459Z" />
<glyph unicode="M" glyph-name="M" horiz-adv-x="835" d="M738 650L741 0H667L664 557H663L438 0H377L151 557L149 0H94L97 650L99 647L98 650H191L420 93H421L650 650H738Z" />
<glyph unicode="N" glyph-name="N" horiz-adv-x="651" d="M557 650V0H491L145 554H144L149 523V0H94V650H173L505 114L502 138V650H557Z" />
<glyph unicode="O" glyph-name="O" horiz-adv-x="654" d="M525 324Q525 463 474 537T326 611Q231 611 180 537T129 324Q129 184 179 111T326 38T473 111T525 324ZM606 324Q606 168 532 79T326 -10Q195 -10 122 79T48 324Q48 479 121 569T326 659T531 569T606 324Z" />
<glyph unicode="P" glyph-name="P" horiz-adv-x="496" d="M242 606H170V270H241Q381 270 381 441Q381 606 242 606ZM94 0V650H250Q350 650 405 598T461 444Q461 332 400 280T252 228H170V0H94Z" />
<glyph unicode="Q" glyph-name="Q" horiz-adv-x="654" d="M525 324Q525 462 473 536T326 611T180 537T129 324Q129 185 180 112T326 38Q422 38 473 111T525 324ZM563 -149Q539 -159 510 -159Q451 -159 394 -117T301 -9Q181 -1 115 87T48 324Q48 479 121 569T326
659Q458 659 532 571T606 327Q606 188 546 100T378 -6Q451 -117 525 -117Q542 -117 558 -111L563 -149Z" />
<glyph unicode="R" glyph-name="R" horiz-adv-x="539" d="M242 606H170V286H251Q316 286 349 323T382 448Q382 606 242 606ZM251 650Q350 650 406 599T462 451Q462 374 429 325T342 255L505 0H418L269 241H170V0H94V650H251Z" />
<glyph unicode="S" glyph-name="S" horiz-adv-x="490" d="M419 603L409 559Q403 565 392 574T344 598T269 613Q213 613 181 582T149 498Q149 452 179 422T253 375T339 339T412 279T443 178Q443 95 387 43T236 -10Q195 -10 160 -1T105 20T70 44T50 66L44 75L69
114Q71 111 74 106T92 88T123 65T169 47T233 39Q296 39 332 75T368 166Q368 212 338 242T264 289T178 326T105 383T74 480Q74 562 126 610T265 659Q308 659 346 645T402 617L419 603Z" />
<glyph unicode="T" glyph-name="T" horiz-adv-x="461" d="M454 650V602H268V0H192V602H7V650H454Z" />
<glyph unicode="U" glyph-name="U" horiz-adv-x="620" d="M310 -10Q201 -10 144 50T86 212V650H161V229Q161 138 201 90T318 41Q398 41 438 90T479 229V650H534V212Q534 110 478 50T310 -10Z" />
<glyph unicode="V" glyph-name="V" horiz-adv-x="548" d="M315 0H227L15 650H94L283 56L475 650H531L315 0Z" />
<glyph unicode="W" glyph-name="W" horiz-adv-x="848" d="M775 650H831L656 0H586L424 554L264 0H194L15 650H95L243 87L402 650H469L631 88L775 650Z" />
<glyph unicode="X" glyph-name="X" horiz-adv-x="541" d="M18 0L226 323L26 650H118L279 378L447 650H510L311 335L523 0H430L259 279H258L85 0H18Z" />
<glyph unicode="Y" glyph-name="Y" horiz-adv-x="507" d="M2 650H87L266 330L444 650H505L293 274V0H217V269L2 650Z" />
<glyph unicode="Z" glyph-name="Z" horiz-adv-x="527" d="M485 650V609L132 48H485V0H40V40L392 602H49V650H485Z" />
<glyph unicode="[" glyph-name="bracketleft" horiz-adv-x="334" d="M323 -31V-76H88V701H323V657H152V-31H323Z" />
<glyph unicode="\" glyph-name="backslash" horiz-adv-x="417" d="M-14 750H41L416 -250H361L-14 750Z" />
<glyph unicode="]" glyph-name="bracketright" horiz-adv-x="334" d="M247 701V-76H11V-31H182V657H11V701H247Z" />
<glyph unicode="^" glyph-name="asciicircum" horiz-adv-x="336" d="M167 687L302 520L277 494L168 623L57 494L34 520L167 687Z" />
<glyph unicode="_" glyph-name="underscore" horiz-adv-x="624" d="M590 -99V-146H34V-99H590Z" />
<glyph unicode="`" glyph-name="grave" horiz-adv-x="207" d="M-10 708L52 724L135 581L95 573L-10 708Z" />
<glyph unicode="a" glyph-name="a" horiz-adv-x="477" d="M315 107V253Q107 230 107 122Q107 79 132 57T200 34Q223 34 243 41T276 59T298 81T311 100L315 107ZM89 423L81 464Q149 510 222 510Q308 510 348 474T388 347V102Q388 34 414 34Q421 34 430 36T446 40L453
43L456 9Q407 -10 378 -10Q352 -10 338 6T321 65H320Q319 62 316 57T301 39T274 16T234 -2T178 -10Q112 -10 72 22T32 113Q32 260 315 290V343Q315 414 292 440T211 466Q185 466 155 455T106 434L89 423Z" />
<glyph unicode="b" glyph-name="b" horiz-adv-x="516" d="M261 463Q234 463 211 454T175 429T157 406T148 391V82Q152 76 161 67T196 48T254 37Q331 37 366 93T402 262Q402 463 261 463ZM75 0V748L148 752V443H149Q150 446 153 450T166 466T191 487T229 503T282
511Q371 511 425 446T479 264Q479 138 426 64T273 -11Q187 -11 141 39L127 0H75Z" />
<glyph unicode="c" glyph-name="c" horiz-adv-x="423" d="M386 426Q329 466 263 466Q186 466 150 415T114 246Q114 34 259 34Q283 34 305 40T340 56T364 74T378 90L383 96L415 75Q413 72 410 66T394 46T363 20T317 -1T253 -10Q149 -10 93 54T37 245Q37 373 92
441T255 510Q290 510 325 499T378 478L395 467L386 426Z" />
<glyph unicode="d" glyph-name="d" horiz-adv-x="516" d="M254 39Q277 39 297 46T330 63T352 84T365 102L369 109V416Q365 421 358 428T323 449T263 462Q114 462 114 238Q114 39 254 39ZM441 752V0H379L371 59Q365 47 354 34T311 6T238 -10Q147 -10 92 55T37 236Q37
361 90 435T241 510Q282 510 313 498T356 474L368 462H369V748L441 752Z" />
<glyph unicode="e" glyph-name="e" horiz-adv-x="453" d="M242 467Q124 467 114 278H353Q354 288 354 297Q354 467 242 467ZM388 99L417 75Q415 72 412 66T394 46T362 20T315 -1T251 -10Q151 -10 94 52T37 240Q37 366 92 438T242 510Q328 510 374 451T421 282L416
236H113Q113 34 259 34Q284 34 306 40T343 57T368 76T384 92L388 99Z" />
<glyph unicode="f" glyph-name="f" horiz-adv-x="313" d="M312 500V451H167V0H95V451H43V493L95 499V571Q95 668 125 713T226 759Q250 759 273 752T309 737L321 730L311 691Q277 714 239 714Q200 714 184 682T167 563V500H312Z" />
<glyph unicode="g" glyph-name="g" horiz-adv-x="451" d="M334 334Q334 467 227 467Q117 467 117 333Q117 265 146 230T228 195Q334 195 334 334ZM219 1Q172 1 144 9Q77 -19 77 -96Q77 -215 236 -215Q306 -215 344 -187T382 -104Q382 1 219 1ZM231 510Q270 510
300 500H301L429 499V460L365 458Q405 413 405 333Q405 247 359 201T230 155Q196 155 169 162Q134 139 134 110Q134 83 156 73T227 62Q446 62 446 -92Q446 -174 392 -217T236 -260Q130 -260 75 -219T20 -97Q20 0 103 34Q85 55 85 93Q85 142 131 177Q47 220 47 333Q47
424 98 467T231 510Z" />
<glyph unicode="h" glyph-name="h" horiz-adv-x="512" d="M74 0V748L147 752V455H148L151 458Q154 461 159 466T173 476T193 488T219 499T252 507T291 510Q364 510 403 470T443 349V0H371V340Q371 457 267 457Q231 457 201 445T159 420L147 407V0H74Z" />
<glyph unicode="i" glyph-name="i" horiz-adv-x="222" d="M82 676Q93 687 111 687Q130 687 141 677Q153 664 153 644Q153 626 141 612Q127 601 111 601Q93 601 82 612Q69 625 69 644T82 676ZM147 500V0H74V500H147Z" />
<glyph unicode="j" glyph-name="j" horiz-adv-x="240" d="M100 676Q111 687 129 687Q148 687 159 677Q171 664 171 644Q171 626 159 612Q145 601 129 601Q111 601 100 612Q87 625 87 644T100 676ZM92 -41V500H165V-41Q165 -260 24 -260Q0 -260 -18 -255T-42 -244L-49
-238L-35 -197Q-16 -213 15 -213Q54 -213 73 -173T92 -41Z" />
<glyph unicode="k" glyph-name="k" horiz-adv-x="456" d="M74 0V748L147 752V271L208 313L357 500H412L247 295L433 0H350L191 252L147 225V0H74Z" />
<glyph unicode="l" glyph-name="l" horiz-adv-x="223" d="M147 752V0H75V748L147 752Z" />
<glyph unicode="m" glyph-name="m" horiz-adv-x="725" d="M75 0V500H135L144 447Q199 510 285 510Q366 510 390 449Q399 459 413 470T462 496T536 510Q599 510 628 477T657 367V0H584V359Q584 417 566 437T509 458Q480 458 454 446T418 423T400 403Q402 381 402
368V0H329V359Q329 416 312 437T256 458Q227 458 201 446T163 423T147 404V0H75Z" />
<glyph unicode="n" glyph-name="n" horiz-adv-x="512" d="M75 0V500H135L144 452Q194 510 292 510Q364 510 404 470T444 349V0H371V334Q371 457 268 457Q232 457 202 445T159 420L147 407V0H75Z" />
<glyph unicode="o" glyph-name="o" horiz-adv-x="501" d="M250 466Q180 466 147 413T114 250T147 88T250 34Q386 34 386 250T250 466ZM463 250Q463 127 408 59T250 -10Q146 -10 92 58T37 250T91 442T250 510T408 442T463 250Z" />
<glyph unicode="p" glyph-name="p" horiz-adv-x="516" d="M262 461Q239 461 219 454T186 437T164 417T151 400L147 393V82Q184 38 252 38Q330 38 366 93T402 262Q402 461 262 461ZM75 -252V500H135L144 440Q149 448 157 456T182 478T226 501T286 510Q374 510 426
445T479 264Q479 138 426 64T276 -10Q235 -10 203 2T160 26L148 38H147V-250L75 -252Z" />
<glyph unicode="q" glyph-name="q" horiz-adv-x="516" d="M257 39Q294 39 321 56T358 90L368 107V419Q330 462 265 462Q114 462 114 238Q114 132 151 86T257 39ZM441 500V-250L368 -252V60H367Q366 57 363 53T350 36T326 15T288 -2T235 -10Q146 -10 92 55T38 236Q38
361 92 435T245 510Q326 510 372 464L389 500H441Z" />
<glyph unicode="r" glyph-name="r" horiz-adv-x="329" d="M322 494L315 439Q271 454 240 454Q218 454 199 441T170 410T154 379T147 360V0H74V500H128L139 397Q140 402 142 409T153 436T173 471T204 498T248 510Q262 510 280 506T310 498L322 494Z" />
<glyph unicode="s" glyph-name="s" horiz-adv-x="408" d="M36 64L61 99Q66 92 75 81T116 52T187 34Q243 34 271 62T300 130Q300 167 275 189T214 223T143 249T82 293T57 371Q57 435 103 472T223 510Q255 510 288 500T338 480L355 471L343 428Q290 468 229 468Q183
468 155 445T126 387Q126 350 152 327T214 292T287 265T350 221T376 142Q376 77 331 34T199 -10Q165 -10 136 -3T90 16T59 38T41 56L36 64Z" />
<glyph unicode="t" glyph-name="t" horiz-adv-x="326" d="M293 500V451H165V152Q165 87 177 63T221 38Q239 38 255 41T278 46L286 49L291 9Q263 -10 198 -10Q144 -10 118 23T92 134V451H40V493L92 499L119 658H165V500H293Z" />
<glyph unicode="u" glyph-name="u" horiz-adv-x="512" d="M437 500V0H376L366 48Q359 39 348 29T301 4T221 -10Q148 -10 108 30T68 151V500H141V166Q141 43 245 43Q281 43 310 55T352 81L364 94V500H437Z" />
<glyph unicode="v" glyph-name="v" horiz-adv-x="435" d="M184 0L13 500H99L229 79L367 500H422L250 0H184Z" />
<glyph unicode="w" glyph-name="w" horiz-adv-x="657" d="M588 500H644L509 0H445L328 403L210 0H145L14 500H95L189 92L308 500H365L490 92L588 500Z" />
<glyph unicode="x" glyph-name="x" horiz-adv-x="443" d="M417 500L262 261L430 0H345L211 216L72 0H12L178 249L20 500H106L229 291L358 500H417Z" />
<glyph unicode="y" glyph-name="y" horiz-adv-x="449" d="M24 -201Q43 -210 65 -210Q111 -210 142 -161T211 -6L15 500H101L249 82L383 500H436L263 -8Q242 -67 226 -106T186 -183T136 -241T76 -260Q58 -260 43 -257T22 -250L16 -247L24 -201Z" />
<glyph unicode="z" glyph-name="z" horiz-adv-x="415" d="M375 500V460L121 45H373L375 0H35V40L291 455H57L54 500H375Z" />
<glyph unicode="{" glyph-name="braceleft" horiz-adv-x="375" d="M98 268V316Q129 316 160 342T191 405Q191 435 178 503T164 607Q164 677 203 712T340 748V705Q278 705 252 679T226 602Q226 570 239 500T253 397Q253 361 232 334T175 292Q211 277 232 250T253
187Q253 154 240 84T226 -18Q226 -69 252 -95T340 -121V-164Q242 -164 203 -129T164 -23Q164 13 177 81T191 179Q191 216 160 242T98 268Z" />
<glyph unicode="|" glyph-name="bar" horiz-adv-x="292" d="M171 750V-250H121V750H171Z" />
<glyph unicode="}" glyph-name="braceright" horiz-adv-x="375" d="M60 -121Q121 -121 147 -95T173 -18Q173 14 160 84T146 187Q146 259 223 292Q146 325 146 397Q146 430 159 500T173 602Q173 653 147 679T60 705V748Q158 748 197 713T236 607Q236 571 222 503T208
405Q208 368 239 342T302 316V268Q271 268 240 242T208 179Q208 149 222 81T236 -23Q236 -93 197 -128T60 -164V-121Z" />
<glyph unicode="~" glyph-name="asciitilde" horiz-adv-x="573" d="M515 374L543 355Q542 351 540 344T528 320T505 289T468 265T415 254Q376 254 340 270T282 306T225 342T155 358Q135 358 118 352T91 338T74 322T64 308L61 302L31 323Q32 327 34 334T48 360T73
392T113 417T172 429Q215 429 252 413T313 377T368 342T435 325Q464 325 484 337T510 362L515 374Z" />
<glyph unicode="&#xa0;" glyph-name="uni00A0" horiz-adv-x="298" />
<glyph unicode="&#xa1;" glyph-name="exclamdown" horiz-adv-x="276" d="M105 496Q119 508 136 508Q154 508 168 496Q181 483 181 462T168 428Q154 416 136 416T105 428Q91 441 91 462T105 496ZM96 -250V-167L115 288H159L177 -167V-250H96Z" />
<glyph unicode="&#xa2;" glyph-name="cent" horiz-adv-x="423" d="M386 493Q329 533 263 533Q186 533 150 482T114 313Q114 101 259 101Q283 101 305 107T340 123T364 141T378 156L383 163L415 142Q414 139 411 134T395 115T369 91T328 70T272 57L269 -50H227L221
59Q37 78 37 312Q37 429 83 496T220 575L224 700H266L272 576Q303 574 334 564T380 544L395 534L386 493Z" />
<glyph unicode="&#xa3;" glyph-name="sterling" horiz-adv-x="508" d="M429 328V281H206Q203 127 155 67H486V0H46V67H84Q142 107 142 215Q142 248 139 282L46 285V328H134Q123 438 123 483Q123 568 168 613T299 659Q326 659 357 650T408 631L426 622L414 579Q358
611 314 611Q258 611 231 580T204 479Q204 424 206 328H429Z" />
<glyph unicode="&#xa4;" glyph-name="currency" horiz-adv-x="540" d="M380 314Q380 378 350 414T271 451Q221 451 191 415T161 315T191 215T271 177Q320 177 350 214T380 314ZM423 314Q423 245 389 196L490 89L463 52L369 172Q328 133 271 133T173 171L79 53L51
90L152 196Q119 243 119 314Q119 381 151 431L50 539L78 576L172 455Q214 495 271 495Q325 495 367 458L462 575L489 538L388 433Q423 384 423 314Z" />
<glyph unicode="&#xa5;" glyph-name="yen" horiz-adv-x="563" d="M29 650H114L293 330L471 650H532L346 320H457V280H323L320 274V185H457V145H320V0H244V145H97V185H244V269L238 280H97V320H215L29 650Z" />
<glyph unicode="&#xa6;" glyph-name="brokenbar" horiz-adv-x="292" d="M171 750V350H121V750H171ZM171 150V-250H121V150H171Z" />
<glyph unicode="&#xa7;" glyph-name="section" horiz-adv-x="486" d="M118 322Q118 275 155 249T256 201T349 159Q396 187 396 246Q396 280 370 304T311 340T232 369T160 404Q118 380 118 322ZM67 308Q67 390 131 429Q101 461 101 510Q101 574 145 616T274 659Q307
659 341 648T392 624L409 612L401 572Q344 615 284 615Q225 615 199 586T172 518Q172 481 200 457T269 418T350 389T418 341T447 258Q447 177 377 134Q405 101 405 55Q405 -8 359 -48T223 -89Q176 -89 139 -77T87 -52L73 -40L90 0Q94 -5 103 -12T144 -32T214 -45Q278
-45 306 -19T334 48Q334 84 307 107T240 144T161 174T95 224T67 308Z" />
<glyph unicode="&#xa8;" glyph-name="dieresis" horiz-adv-x="375" d="M49 674Q62 684 76 684Q89 684 102 674Q113 661 113 644Q113 628 102 615Q89 605 76 605Q62 605 49 615Q38 626 38 644Q38 663 49 674ZM203 674Q216 684 229 684T255 674Q267 662 267 644Q267
627 255 615Q242 605 229 605T203 615Q192 626 192 644Q192 663 203 674Z" />
<glyph unicode="&#xa9;" glyph-name="copyright" horiz-adv-x="729" d="M472 462L462 431Q429 463 382 463Q330 463 301 426T272 317Q272 248 302 212T383 175Q411 175 432 188T462 214L470 227L489 206Q488 203 486 199T475 183T454 163T421 147T373 140Q307
140 263 187T219 317Q219 401 262 449T377 497Q403 497 427 489T462 471L472 462ZM615 322Q615 465 547 546T362 627Q246 627 180 546T113 322Q113 180 179 101T362 22Q480 22 547 101T615 322ZM654 480T654 323T577 76T363 -14T150 76T73 323T150 571T363 663Q499
663 576 572Z" />
<glyph unicode="&#xaa;" glyph-name="ordfeminine" horiz-adv-x="389" d="M176 347Q234 347 258 407V511Q223 508 198 503T148 487T110 460T97 417Q97 347 176 347ZM272 320L259 373Q255 362 247 350T212 324T150 310Q93 310 63 336T33 411Q33 524 258 540V557Q258
603 239 624T177 646Q149 646 124 636T88 616L77 605L61 629Q65 635 73 643T113 666T188 680Q257 680 290 649T323 552V320H272Z" />
<glyph unicode="&#xab;" glyph-name="guillemotleft" horiz-adv-x="484" d="M422 395L314 249L422 101L399 74L245 250L400 421L422 395ZM260 395L152 249L260 101L237 74L83 250L238 421L260 395Z" />
<glyph unicode="&#xac;" glyph-name="logicalnot" horiz-adv-x="447" d="M392 341V128H349V295H53V341H392Z" />
<glyph unicode="&#xad;" glyph-name="uni00AD" horiz-adv-x="310" d="M269 301V254H40V301H269Z" />
<glyph unicode="&#xae;" glyph-name="registered" horiz-adv-x="617" d="M309 584H265V447H309Q379 447 379 521Q379 584 309 584ZM226 294V611H309Q422 611 422 521Q422 448 353 428L419 294H376L313 422H265V294H226ZM526 452Q526 577 468 650T308 723T149 650T91
452T148 257T308 186Q410 186 468 257T526 452ZM565 592T565 453T497 232T308 150T120 232T52 453T121 674T308 757T495 675Z" />
<glyph unicode="&#xaf;" glyph-name="overscore" horiz-adv-x="395" d="M290 672V636H104V672H290Z" />
<glyph unicode="0;" glyph-name="degree" horiz-adv-x="409" d="M302 574Q302 645 277 682T205 720Q108 720 108 574Q108 503 133 465T204 427Q251 427 276 465T302 574ZM362 573Q362 487 320 436T205 385Q130 385 89 436T48 573T90 710T205 762Q277 762 319
710T362 573Z" />
<glyph unicode="1;" glyph-name="plusminus" horiz-adv-x="470" d="M436 198V151H34V198H436ZM259 723V549H405V502H259V328H215V502H66V549H215V723H259Z" />
<glyph unicode="2;" glyph-name="uni00B2" horiz-adv-x="377" d="M333 293V230H41V285Q54 290 86 321T156 396T221 498T250 604Q250 661 229 688T158 715Q139 715 115 705T75 684L60 673L52 712Q112 758 175 758Q249 758 285 718T322 609Q322 468 111 293H333Z" />
<glyph unicode="3;" glyph-name="uni00B3" horiz-adv-x="376" d="M315 750V707L183 526Q185 526 190 526T199 527Q257 527 294 487T331 380Q331 305 284 263T166 221Q125 221 94 232T51 256L40 268L59 303Q61 300 70 292T103 274T157 264Q207 264 235 295T264
382Q264 434 244 461T186 489Q162 489 144 471L143 470L119 497L254 687H64L68 750H315Z" />
<glyph unicode="4;" glyph-name="acute" horiz-adv-x="207" d="M133 721L196 706L94 571L56 576L133 721Z" />
<glyph unicode="5;" glyph-name="uni00B5" horiz-adv-x="518" d="M443 500V0H382L372 48Q365 39 354 29T307 4T227 -10Q178 -10 144 8Q149 -135 149 -250H75V127Q74 135 74 151V500H147V166Q147 43 251 43Q287 43 316 55T358 81L370 94V500H443Z" />
<glyph unicode="6;" glyph-name="paragraph" horiz-adv-x="597" d="M550 650V595H492V0H431V595H336V0H276V244Q163 244 106 292T48 450Q48 550 106 600T290 650H550Z" />
<glyph unicode="7;" glyph-name="middot" horiz-adv-x="243" d="M89 371Q102 383 120 383T152 371Q165 358 165 337T152 303Q138 291 120 291T89 303Q75 316 75 337T89 371Z" />
<glyph unicode="8;" glyph-name="cedilla" horiz-adv-x="234" d="M104 -3H132L125 -69L149 -75Q173 -81 197 -101T221 -155Q221 -200 195 -225T117 -251Q87 -251 64 -241T33 -220L25 -209L43 -189Q65 -221 110 -221Q176 -221 176 -153Q176 -127 155 -113T113
-96T92 -92L104 -3Z" />
<glyph unicode="9;" glyph-name="uni00B9" horiz-adv-x="376" d="M188 750H242V230H176V690L87 632L70 674L188 750Z" />
<glyph unicode="a;" glyph-name="ordmasculine" horiz-adv-x="419" d="M313 645T209 645T105 495Q105 343 209 343T313 495Q313 645 209 645ZM381 495Q381 408 337 359T209 310Q124 310 81 358T37 495T80 631T209 680T337 632T381 495Z" />
<glyph unicode="b;" glyph-name="guillemotright" horiz-adv-x="484" d="M224 394L247 421L400 244L246 74L223 100L331 245L224 394ZM62 394L85 421L238 244L84 74L61 100L169 245L62 394Z" />
<glyph unicode="c;" glyph-name="onequarter" horiz-adv-x="727" d="M465 278L528 270Q488 88 407 -77H557V86L573 194H625V-77H674V-113L625 -119V-250H557V-119H362L357 -84Q416 46 465 278ZM557 561L254 0L219 20L522 582L557 561ZM188 750H242V230H176V690L87
632L70 674L188 750Z" />
<glyph unicode="d;" glyph-name="onehalf" horiz-adv-x="786" d="M721 -187V-250H430V-195Q443 -190 475 -159T545 -84T610 18T639 124Q639 181 618 207T546 234Q527 234 503 224T464 204L449 193L440 232Q501 278 564 278Q638 278 674 237T711 129Q711 -13
501 -187H721ZM557 561L254 0L219 20L522 582L557 561ZM188 750H242V230H176V690L87 632L70 674L188 750Z" />
<glyph unicode="e;" glyph-name="threequarters" horiz-adv-x="775" d="M513 278L576 270Q536 88 455 -77H605V86L621 194H673V-77H722V-113L673 -119V-250H605V-119H410L405 -84Q464 46 513 278ZM604 561L301 0L266 20L569 582L604 561ZM316 750V707L184
526Q186 526 191 526T200 527Q258 527 295 487T332 380Q332 305 285 263T167 221Q126 221 95 232T52 256L41 268L60 303Q62 300 71 292T104 274T158 264Q208 264 236 295T265 382Q265 434 245 461T187 489Q163 489 145 471L144 470L120 497L255 687H65L69 750H316Z"
/>
<glyph unicode="f;" glyph-name="questiondown" horiz-adv-x="411" d="M233 496Q246 508 264 508T296 496Q309 483 309 462T296 428Q282 416 264 416T233 428Q219 441 219 462T233 496ZM337 -192L355 -233Q314 -260 235 -260Q131 -260 84 -211T37 -93Q37 -52
49 -21T79 31T121 68T167 102T208 139T239 191T251 264Q251 268 251 275T250 285L284 288Q289 253 289 233Q289 191 277 159T245 110T204 73T163 36T132 -11T119 -83Q119 -214 242 -214Q267 -214 291 -209T326 -198L337 -192Z" />
<glyph unicode="0;" glyph-name="Agrave" horiz-adv-x="568" d="M175 843L237 859L320 716L280 708L175 843ZM273 592L158 241H386L273 592ZM242 650H331L546 0H467L399 200H144L76 0H23L242 650Z" />
<glyph unicode="1;" glyph-name="Aacute" horiz-adv-x="568" d="M332 856L395 841L293 706L255 711L332 856ZM273 592L158 241H386L273 592ZM242 650H331L546 0H467L399 200H144L76 0H23L242 650Z" />
<glyph unicode="2;" glyph-name="Acircumflex" horiz-adv-x="568" d="M304 878L412 764L394 732L284 829L174 732L155 764L265 878H304ZM273 592L158 241H386L273 592ZM242 650H331L546 0H467L399 200H144L76 0H23L242 650Z" />
<glyph unicode="3;" glyph-name="Atilde" horiz-adv-x="568" d="M429 806L452 781Q449 775 444 767T417 744T367 730Q337 730 288 753T213 776Q196 776 181 766T160 746L153 737L130 762Q131 765 133 769T145 784T164 803T191 818T226 825Q259 825 306 802T378
779Q394 779 407 785T424 799L429 806ZM273 592L158 241H386L273 592ZM242 650H331L546 0H467L399 200H144L76 0H23L242 650Z" />
<glyph unicode="4;" glyph-name="Adieresis" horiz-adv-x="568" d="M183 809Q196 819 210 819Q223 819 236 809Q247 796 247 779Q247 763 236 750Q223 740 210 740Q196 740 183 750Q172 761 172 779Q172 798 183 809ZM337 809Q350 819 363 819T389 809Q401
797 401 779Q401 762 389 750Q376 740 363 740T337 750Q326 761 326 779Q326 798 337 809ZM273 592L158 241H386L273 592ZM242 650H331L546 0H467L399 200H144L76 0H23L242 650Z" />
<glyph unicode="5;" glyph-name="Aring" horiz-adv-x="568" d="M344 779Q344 812 327 829T284 846Q257 846 240 829T223 779Q223 745 240 729T284 712T327 728T344 779ZM373 779Q373 734 349 710T284 686T220 710T195 779Q195 823 220 848T284 873Q322 873
347 848T373 779ZM273 592L158 241H386L273 592ZM242 650H331L546 0H467L399 200H144L76 0H23L242 650Z" />
<glyph unicode="6;" glyph-name="AE" horiz-adv-x="789" d="M377 602L183 246H381V602H377ZM359 650H732V602H457V352H708V306H457V48H753V0H381V205H161L45 0H-12L359 650Z" />
<glyph unicode="7;" glyph-name="Ccedilla" horiz-adv-x="570" d="M510 556Q500 562 484 571T421 594T336 609Q239 609 184 536T129 321Q129 182 185 111T342 40Q376 40 406 50T457 74T493 103T515 128L522 138L550 106Q547 101 542 94T518 66T476 31T415
3T334 -10L328 -69L352 -75Q376 -81 400 -101T424 -155Q424 -200 398 -225T320 -251Q290 -251 267 -241T236 -220L228 -209L246 -189Q268 -221 313 -221Q379 -221 379 -153Q379 -127 358 -113T316 -96T295 -92L306 -9Q183 0 116 86T48 319Q48 475 124 567T328 659Q374
659 421 646T494 618L519 604L510 556Z" />
<glyph unicode="8;" glyph-name="Egrave" horiz-adv-x="507" d="M168 843L230 859L313 716L273 708L168 843ZM466 48V0H94V650H444V602H170V352H421V306H170V48H466Z" />
<glyph unicode="9;" glyph-name="Eacute" horiz-adv-x="507" d="M325 856L388 841L286 706L248 711L325 856ZM466 48V0H94V650H444V602H170V352H421V306H170V48H466Z" />
<glyph unicode="a;" glyph-name="Ecircumflex" horiz-adv-x="507" d="M301 878L409 764L391 732L281 829L171 732L152 764L262 878H301ZM466 48V0H94V650H444V602H170V352H421V306H170V48H466Z" />
<glyph unicode="b;" glyph-name="Edieresis" horiz-adv-x="507" d="M164 809Q177 819 190 819Q204 819 217 809Q228 796 228 779Q228 763 217 750Q204 740 190 740Q177 740 164 750Q153 761 153 779Q153 798 164 809ZM318 809Q331 819 344 819T370 809Q382
797 382 779Q382 762 370 750Q357 740 344 740T318 750Q307 761 307 779Q307 798 318 809ZM466 48V0H94V650H444V602H170V352H421V306H170V48H466Z" />
<glyph unicode="c;" glyph-name="Igrave" horiz-adv-x="265" d="M19 843L81 859L164 716L124 708L19 843ZM170 650V0H94V650H170Z" />
<glyph unicode="d;" glyph-name="Iacute" horiz-adv-x="265" d="M176 856L239 841L137 706L99 711L176 856ZM170 650V0H94V650H170Z" />
<glyph unicode="e;" glyph-name="Icircumflex" horiz-adv-x="265" d="M151 878L259 764L241 732L131 829L21 732L2 764L112 878H151ZM170 650V0H94V650H170Z" />
<glyph unicode="f;" glyph-name="Idieresis" horiz-adv-x="265" d="M27 809Q40 819 54 819Q67 819 80 809Q91 796 91 779Q91 763 80 750Q67 740 54 740Q40 740 27 750Q16 761 16 779Q16 798 27 809ZM181 809Q194 819 207 819T233 809Q245 797 245 779Q245
762 233 750Q220 740 207 740T181 750Q170 761 170 779Q170 798 181 809ZM170 650V0H94V650H170Z" />
<glyph unicode="&#xd0;" glyph-name="Eth" horiz-adv-x="638" d="M292 602H170V344H359V302H170V48H293Q505 48 505 323Q505 602 292 602ZM94 0V302H25V344H94V650H292Q432 650 509 566T587 323Q587 166 511 83T292 0H94Z" />
<glyph unicode="&#xd1;" glyph-name="Ntilde" horiz-adv-x="651" d="M472 806L495 781Q492 775 487 767T460 744T410 730Q380 730 331 753T256 776Q239 776 224 766T202 746L196 737L173 762Q174 765 176 769T188 784T207 803T234 818T269 825Q302 825 349 802T421
779Q437 779 449 785T467 799L472 806ZM557 650V0H491L145 554H144L149 523V0H94V650H173L505 114L502 138V650H557Z" />
<glyph unicode="&#xd2;" glyph-name="Ograve" horiz-adv-x="654" d="M213 843L275 859L358 716L318 708L213 843ZM525 324Q525 463 474 537T326 611Q231 611 180 537T129 324Q129 184 179 111T326 38T473 111T525 324ZM606 324Q606 168 532 79T326 -10Q195 -10
122 79T48 324Q48 479 121 569T326 659T531 569T606 324Z" />
<glyph unicode="&#xd3;" glyph-name="Oacute" horiz-adv-x="654" d="M370 856L433 841L331 706L293 711L370 856ZM525 324Q525 463 474 537T326 611Q231 611 180 537T129 324Q129 184 179 111T326 38T473 111T525 324ZM606 324Q606 168 532 79T326 -10Q195 -10
122 79T48 324Q48 479 121 569T326 659T531 569T606 324Z" />
<glyph unicode="&#xd4;" glyph-name="Ocircumflex" horiz-adv-x="654" d="M346 878L454 764L436 732L326 829L216 732L197 764L307 878H346ZM525 324Q525 463 474 537T326 611Q231 611 180 537T129 324Q129 184 179 111T326 38T473 111T525 324ZM606 324Q606 168
532 79T326 -10Q195 -10 122 79T48 324Q48 479 121 569T326 659T531 569T606 324Z" />
<glyph unicode="&#xd5;" glyph-name="Otilde" horiz-adv-x="654" d="M467 806L490 781Q487 775 482 767T455 744T405 730Q375 730 326 753T251 776Q234 776 219 766T198 746L191 737L168 762Q169 765 171 769T183 784T202 803T229 818T264 825Q297 825 344 802T416
779Q432 779 445 785T462 799L467 806ZM525 324Q525 463 474 537T326 611Q231 611 180 537T129 324Q129 184 179 111T326 38T473 111T525 324ZM606 324Q606 168 532 79T326 -10Q195 -10 122 79T48 324Q48 479 121 569T326 659T531 569T606 324Z" />
<glyph unicode="&#xd6;" glyph-name="Odieresis" horiz-adv-x="654" d="M221 809Q234 819 248 819Q261 819 274 809Q285 796 285 779Q285 763 274 750Q261 740 248 740Q234 740 221 750Q210 761 210 779Q210 798 221 809ZM375 809Q388 819 401 819T427 809Q439
797 439 779Q439 762 427 750Q414 740 401 740T375 750Q364 761 364 779Q364 798 375 809ZM525 324Q525 463 474 537T326 611Q231 611 180 537T129 324Q129 184 179 111T326 38T473 111T525 324ZM606 324Q606 168 532 79T326 -10Q195 -10 122 79T48 324Q48 479
121 569T326 659T531 569T606 324Z" />
<glyph unicode="&#xd7;" glyph-name="multiply" horiz-adv-x="353" d="M313 442L208 320L313 198L282 161L177 283L72 161L41 198L145 320L40 442L71 480L176 357L282 480L313 442Z" />
<glyph unicode="&#xd8;" glyph-name="Oslash" horiz-adv-x="654" d="M525 324Q525 492 450 564L245 54Q280 38 326 38Q422 38 473 111T525 324ZM129 324Q129 132 222 68L427 582Q384 611 326 611Q231 611 180 537T129 324ZM606 324Q606 168 532 79T326 -10Q274
-10 226 6L183 -101L157 -95L201 16Q127 52 88 131T48 324Q48 479 121 569T326 659Q393 659 448 633L486 728L514 722L473 620Q537 580 571 504T606 324Z" />
<glyph unicode="&#xd9;" glyph-name="Ugrave" horiz-adv-x="620" d="M213 843L275 859L358 716L318 708L213 843ZM310 -10Q201 -10 144 50T86 212V650H161V229Q161 138 201 90T318 41Q398 41 438 90T479 229V650H534V212Q534 110 478 50T310 -10Z" />
<glyph unicode="&#xda;" glyph-name="Uacute" horiz-adv-x="620" d="M351 856L414 841L312 706L274 711L351 856ZM310 -10Q201 -10 144 50T86 212V650H161V229Q161 138 201 90T318 41Q398 41 438 90T479 229V650H534V212Q534 110 478 50T310 -10Z" />
<glyph unicode="&#xdb;" glyph-name="Ucircumflex" horiz-adv-x="620" d="M340 878L448 764L430 732L320 829L210 732L191 764L301 878H340ZM310 -10Q201 -10 144 50T86 212V650H161V229Q161 138 201 90T318 41Q398 41 438 90T479 229V650H534V212Q534 110 478
50T310 -10Z" />
<glyph unicode="&#xdc;" glyph-name="Udieresis" horiz-adv-x="620" d="M216 809Q229 819 242 819Q256 819 269 809Q280 796 280 779Q280 763 269 750Q256 740 242 740Q229 740 216 750Q205 761 205 779Q205 798 216 809ZM370 809Q383 819 396 819T422 809Q434
797 434 779Q434 762 422 750Q409 740 396 740T370 750Q359 761 359 779Q359 798 370 809ZM310 -10Q201 -10 144 50T86 212V650H161V229Q161 138 201 90T318 41Q398 41 438 90T479 229V650H534V212Q534 110 478 50T310 -10Z" />
<glyph unicode="&#xdd;" glyph-name="Yacute" horiz-adv-x="507" d="M314 856L377 841L275 706L237 711L314 856ZM2 650H87L266 330L444 650H505L293 274V0H217V269L2 650Z" />
<glyph unicode="&#xde;" glyph-name="Thorn" horiz-adv-x="514" d="M257 495H181V154H257Q396 154 396 328Q396 495 257 495ZM181 650V541H262Q362 541 417 489T473 331Q473 271 455 227T405 158T339 121T263 109H181V0H106V650H181Z" />
<glyph unicode="&#xdf;" glyph-name="germandbls" horiz-adv-x="530" d="M147 547V0H75V547Q75 653 122 706T257 759Q334 759 378 722T422 619Q422 526 323 485Q494 448 494 238Q494 -10 301 -10Q263 -10 236 -4T200 10L191 16L201 58Q223 36 283 36Q416 36 416
237Q416 354 374 403T232 452V500Q237 500 245 501T273 509T308 527T337 560T350 612Q350 662 325 688T253 714Q147 714 147 547Z" />
<glyph unicode="&#xe0;" glyph-name="agrave" horiz-adv-x="477" d="M121 708L183 724L266 581L226 573L121 708ZM315 107V253Q107 230 107 122Q107 79 132 57T200 34Q223 34 243 41T276 59T298 81T311 100L315 107ZM89 423L81 464Q149 510 222 510Q308 510 348
474T388 347V102Q388 34 414 34Q421 34 430 36T446 40L453 43L456 9Q407 -10 378 -10Q352 -10 338 6T321 65H320Q319 62 316 57T301 39T274 16T234 -2T178 -10Q112 -10 72 22T32 113Q32 260 315 290V343Q315 414 292 440T211 466Q185 466 155 455T106 434L89 423Z"
/>
<glyph unicode="&#xe1;" glyph-name="aacute" horiz-adv-x="477" d="M277 721L340 706L238 571L200 576L277 721ZM315 107V253Q107 230 107 122Q107 79 132 57T200 34Q223 34 243 41T276 59T298 81T311 100L315 107ZM89 423L81 464Q149 510 222 510Q308 510 348
474T388 347V102Q388 34 414 34Q421 34 430 36T446 40L453 43L456 9Q407 -10 378 -10Q352 -10 338 6T321 65H320Q319 62 316 57T301 39T274 16T234 -2T178 -10Q112 -10 72 22T32 113Q32 260 315 290V343Q315 414 292 440T211 466Q185 466 155 455T106 434L89 423Z"
/>
<glyph unicode="&#xe2;" glyph-name="acircumflex" horiz-adv-x="477" d="M253 743L361 629L343 597L233 694L123 597L104 629L214 743H253ZM315 107V253Q107 230 107 122Q107 79 132 57T200 34Q223 34 243 41T276 59T298 81T311 100L315 107ZM89 423L81 464Q149
510 222 510Q308 510 348 474T388 347V102Q388 34 414 34Q421 34 430 36T446 40L453 43L456 9Q407 -10 378 -10Q352 -10 338 6T321 65H320Q319 62 316 57T301 39T274 16T234 -2T178 -10Q112 -10 72 22T32 113Q32 260 315 290V343Q315 414 292 440T211 466Q185 466
155 455T106 434L89 423Z" />
<glyph unicode="&#xe3;" glyph-name="atilde" horiz-adv-x="477" d="M375 671L398 646Q395 640 390 632T363 609T313 595Q283 595 234 618T159 641Q142 641 127 632T106 612L99 602L76 627Q77 630 79 634T91 649T110 668T137 683T172 690Q205 690 252 667T324
644Q340 644 353 651T370 664L375 671ZM315 107V253Q107 230 107 122Q107 79 132 57T200 34Q223 34 243 41T276 59T298 81T311 100L315 107ZM89 423L81 464Q149 510 222 510Q308 510 348 474T388 347V102Q388 34 414 34Q421 34 430 36T446 40L453 43L456 9Q407
-10 378 -10Q352 -10 338 6T321 65H320Q319 62 316 57T301 39T274 16T234 -2T178 -10Q112 -10 72 22T32 113Q32 260 315 290V343Q315 414 292 440T211 466Q185 466 155 455T106 434L89 423Z" />
<glyph unicode="&#xe4;" glyph-name="adieresis" horiz-adv-x="477" d="M128 674Q141 684 154 684Q168 684 181 674Q192 661 192 644Q192 628 181 615Q168 605 154 605Q141 605 128 615Q117 626 117 644Q117 663 128 674ZM282 674Q295 684 308 684T334 674Q346
662 346 644Q346 627 334 615Q321 605 308 605T282 615Q271 626 271 644Q271 663 282 674ZM315 107V253Q107 230 107 122Q107 79 132 57T200 34Q223 34 243 41T276 59T298 81T311 100L315 107ZM89 423L81 464Q149 510 222 510Q308 510 348 474T388 347V102Q388
34 414 34Q421 34 430 36T446 40L453 43L456 9Q407 -10 378 -10Q352 -10 338 6T321 65H320Q319 62 316 57T301 39T274 16T234 -2T178 -10Q112 -10 72 22T32 113Q32 260 315 290V343Q315 414 292 440T211 466Q185 466 155 455T106 434L89 423Z" />
<glyph unicode="&#xe5;" glyph-name="aring" horiz-adv-x="477" d="M293 610T293 644T277 694T233 711T189 694T172 644Q172 610 189 594T233 577T276 593ZM322 644Q322 599 298 575T233 551T169 575T144 644Q144 688 169 713T233 738Q271 738 296 713T322 644ZM315
107V253Q107 230 107 122Q107 79 132 57T200 34Q223 34 243 41T276 59T298 81T311 100L315 107ZM89 423L81 464Q149 510 222 510Q308 510 348 474T388 347V102Q388 34 414 34Q421 34 430 36T446 40L453 43L456 9Q407 -10 378 -10Q352 -10 338 6T321 65H320Q319
62 316 57T301 39T274 16T234 -2T178 -10Q112 -10 72 22T32 113Q32 260 315 290V343Q315 414 292 440T211 466Q185 466 155 455T106 434L89 423Z" />
<glyph unicode="&#xe6;" glyph-name="ae" horiz-adv-x="727" d="M200 34Q226 34 246 46T277 75T297 117T308 160T313 199Q311 225 311 240V255Q107 232 107 123Q107 80 132 57T200 34ZM516 467Q398 467 388 278H627Q628 288 628 297Q628 467 516 467ZM662 99L691
75Q689 72 686 66T668 46T636 20T589 -1T525 -10Q378 -10 331 115Q294 -10 178 -10Q113 -10 73 23T32 114Q32 264 311 291V331Q311 407 292 436T218 466Q192 466 162 455T114 434L97 423L88 464Q156 510 230 510Q285 510 315 491T358 428Q412 510 516 510Q602 510
648 451T695 282L690 236H387Q387 34 533 34Q558 34 580 40T617 57T642 76T658 92L662 99Z" />
<glyph unicode="&#xe7;" glyph-name="ccedilla" horiz-adv-x="423" d="M386 426Q329 466 263 466Q186 466 150 415T114 246Q114 34 259 34Q283 34 305 40T340 56T364 74T378 90L383 96L415 75Q413 72 410 67T394 47T365 21T321 1T260 -10L254 -69L278 -75Q302
-81 326 -101T350 -155Q350 -200 324 -225T246 -251Q216 -251 193 -241T162 -220L154 -209L172 -189Q194 -221 239 -221Q305 -221 305 -153Q305 -127 284 -113T242 -96T221 -92L232 -9Q138 -3 88 60T37 245Q37 373 92 441T255 510Q290 510 325 499T378 478L395
467L386 426Z" />
<glyph unicode="&#xe8;" glyph-name="egrave" horiz-adv-x="453" d="M130 708L192 724L275 581L235 573L130 708ZM242 467Q124 467 114 278H353Q354 288 354 297Q354 467 242 467ZM388 99L417 75Q415 72 412 66T394 46T362 20T315 -1T251 -10Q151 -10 94 52T37
240Q37 366 92 438T242 510Q328 510 374 451T421 282L416 236H113Q113 34 259 34Q284 34 306 40T343 57T368 76T384 92L388 99Z" />
<glyph unicode="&#xe9;" glyph-name="eacute" horiz-adv-x="453" d="M287 721L350 706L248 571L210 576L287 721ZM242 467Q124 467 114 278H353Q354 288 354 297Q354 467 242 467ZM388 99L417 75Q415 72 412 66T394 46T362 20T315 -1T251 -10Q151 -10 94 52T37
240Q37 366 92 438T242 510Q328 510 374 451T421 282L416 236H113Q113 34 259 34Q284 34 306 40T343 57T368 76T384 92L388 99Z" />
<glyph unicode="&#xea;" glyph-name="ecircumflex" horiz-adv-x="453" d="M262 743L370 629L352 597L242 694L132 597L113 629L223 743H262ZM242 467Q124 467 114 278H353Q354 288 354 297Q354 467 242 467ZM388 99L417 75Q415 72 412 66T394 46T362 20T315 -1T251
-10Q151 -10 94 52T37 240Q37 366 92 438T242 510Q328 510 374 451T421 282L416 236H113Q113 34 259 34Q284 34 306 40T343 57T368 76T384 92L388 99Z" />
<glyph unicode="&#xeb;" glyph-name="edieresis" horiz-adv-x="453" d="M138 674Q151 684 164 684Q178 684 191 674Q202 661 202 644Q202 628 191 615Q178 605 164 605Q151 605 138 615Q127 626 127 644Q127 663 138 674ZM292 674Q305 684 318 684T344 674Q356
662 356 644Q356 627 344 615Q331 605 318 605T292 615Q281 626 281 644Q281 663 292 674ZM242 467Q124 467 114 278H353Q354 288 354 297Q354 467 242 467ZM388 99L417 75Q415 72 412 66T394 46T362 20T315 -1T251 -10Q151 -10 94 52T37 240Q37 366 92 438T242
510Q328 510 374 451T421 282L416 236H113Q113 34 259 34Q284 34 306 40T343 57T368 76T384 92L388 99Z" />
<glyph unicode="&#xec;" glyph-name="igrave" horiz-adv-x="222" d="M-3 708L59 724L142 581L102 573L-3 708ZM147 500V0H74V500H147Z" />
<glyph unicode="&#xed;" glyph-name="iacute" horiz-adv-x="222" d="M154 721L217 706L115 571L77 576L154 721ZM147 500V0H74V500H147Z" />
<glyph unicode="&#xee;" glyph-name="icircumflex" horiz-adv-x="222" d="M131 743L239 629L221 597L111 694L1 597L-18 629L92 743H131ZM147 500V0H74V500H147Z" />
<glyph unicode="&#xef;" glyph-name="idieresis" horiz-adv-x="222" d="M7 674Q20 684 34 684Q47 684 60 674Q71 661 71 644Q71 628 60 615Q47 605 34 605Q20 605 7 615Q-4 626 -4 644Q-4 663 7 674ZM161 674Q174 684 187 684T213 674Q225 662 225 644Q225 627
213 615Q200 605 187 605T161 615Q150 626 150 644Q150 663 161 674ZM147 500V0H74V500H147Z" />
<glyph unicode="&#xf0;" glyph-name="eth" horiz-adv-x="508" d="M386 467T250 467T114 250Q114 141 147 87T250 33T353 87T386 250Q386 467 250 467ZM38 127T38 250T91 441T243 510Q327 510 385 444Q362 571 294 650L186 588L174 614L274 671Q249 696 216 718L254
740Q287 722 317 695L400 743L412 717L338 675Q464 541 464 262Q464 130 410 60T250 -10Q149 -10 94 58Z" />
<glyph unicode="&#xf1;" glyph-name="ntilde" horiz-adv-x="512" d="M384 671L407 646Q404 640 399 632T372 609T322 595Q292 595 243 618T168 641Q151 641 136 632T114 612L108 602L85 627Q86 630 88 634T100 649T119 668T146 683T181 690Q214 690 261 667T333
644Q349 644 361 651T379 664L384 671ZM75 0V500H135L144 452Q194 510 292 510Q364 510 404 470T444 349V0H371V334Q371 457 268 457Q232 457 202 445T159 420L147 407V0H75Z" />
<glyph unicode="&#xf2;" glyph-name="ograve" horiz-adv-x="501" d="M132 708L194 724L277 581L237 573L132 708ZM250 466Q180 466 147 413T114 250T147 88T250 34Q386 34 386 250T250 466ZM463 250Q463 127 408 59T250 -10Q146 -10 92 58T37 250T91 442T250 510T408
442T463 250Z" />
<glyph unicode="&#xf3;" glyph-name="oacute" horiz-adv-x="501" d="M289 721L352 706L250 571L212 576L289 721ZM250 466Q180 466 147 413T114 250T147 88T250 34Q386 34 386 250T250 466ZM463 250Q463 127 408 59T250 -10Q146 -10 92 58T37 250T91 442T250 510T408
442T463 250Z" />
<glyph unicode="&#xf4;" glyph-name="ocircumflex" horiz-adv-x="501" d="M264 743L372 629L354 597L244 694L134 597L115 629L225 743H264ZM250 466Q180 466 147 413T114 250T147 88T250 34Q386 34 386 250T250 466ZM463 250Q463 127 408 59T250 -10Q146 -10
92 58T37 250T91 442T250 510T408 442T463 250Z" />
<glyph unicode="&#xf5;" glyph-name="otilde" horiz-adv-x="501" d="M386 671L409 646Q406 640 401 632T374 609T324 595Q294 595 245 618T170 641Q153 641 138 632T116 612L110 602L87 627Q88 630 90 634T102 649T121 668T148 683T183 690Q216 690 263 667T335
644Q351 644 363 651T381 664L386 671ZM250 466Q180 466 147 413T114 250T147 88T250 34Q386 34 386 250T250 466ZM463 250Q463 127 408 59T250 -10Q146 -10 92 58T37 250T91 442T250 510T408 442T463 250Z" />
<glyph unicode="&#xf6;" glyph-name="odieresis" horiz-adv-x="501" d="M140 674Q153 684 166 684Q180 684 193 674Q204 661 204 644Q204 628 193 615Q180 605 166 605Q153 605 140 615Q129 626 129 644Q129 663 140 674ZM294 674Q307 684 320 684T346 674Q358
662 358 644Q358 627 346 615Q333 605 320 605T294 615Q283 626 283 644Q283 663 294 674ZM250 466Q180 466 147 413T114 250T147 88T250 34Q386 34 386 250T250 466ZM463 250Q463 127 408 59T250 -10Q146 -10 92 58T37 250T91 442T250 510T408 442T463 250Z" />
<glyph unicode="&#xf7;" glyph-name="divide" horiz-adv-x="469" d="M436 277V230H34V277H436ZM204 475Q217 487 235 487Q254 487 267 475Q280 462 280 441T267 407Q254 395 235 395Q218 395 204 407Q190 420 190 441T204 475ZM202 100Q216 112 233 112Q252 112
265 100Q278 87 278 66T265 32Q252 20 233 20Q216 20 202 32Q188 45 188 66T202 100Z" />
<glyph unicode="&#xf8;" glyph-name="oslash" horiz-adv-x="510" d="M386 250Q386 372 345 423L198 43Q221 34 250 34Q386 34 386 250ZM250 466Q180 466 147 413T114 250Q114 111 166 63L315 449Q287 466 250 466ZM463 250Q463 127 408 59T250 -10Q212 -10 181
-1L112 -179L76 -173L147 13Q37 70 37 250Q37 374 91 442T250 510Q296 510 333 496L393 650L430 644L366 479Q463 418 463 250Z" />
<glyph unicode="&#xf9;" glyph-name="ugrave" horiz-adv-x="512" d="M140 708L202 724L285 581L245 573L140 708ZM437 500V0H376L366 48Q359 39 348 29T301 4T221 -10Q148 -10 108 30T68 151V500H141V166Q141 43 245 43Q281 43 310 55T352 81L364 94V500H437Z" />
<glyph unicode="&#xfa;" glyph-name="uacute" horiz-adv-x="512" d="M297 721L360 706L258 571L220 576L297 721ZM437 500V0H376L366 48Q359 39 348 29T301 4T221 -10Q148 -10 108 30T68 151V500H141V166Q141 43 245 43Q281 43 310 55T352 81L364 94V500H437Z" />
<glyph unicode="&#xfb;" glyph-name="ucircumflex" horiz-adv-x="512" d="M273 743L381 629L363 597L253 694L143 597L124 629L234 743H273ZM437 500V0H376L366 48Q359 39 348 29T301 4T221 -10Q148 -10 108 30T68 151V500H141V166Q141 43 245 43Q281 43 310 55T352
81L364 94V500H437Z" />
<glyph unicode="&#xfc;" glyph-name="udieresis" horiz-adv-x="512" d="M149 674Q162 684 176 684Q189 684 202 674Q213 661 213 644Q213 628 202 615Q189 605 176 605Q162 605 149 615Q138 626 138 644Q138 663 149 674ZM303 674Q316 684 329 684T355 674Q367
662 367 644Q367 627 355 615Q342 605 329 605T303 615Q292 626 292 644Q292 663 303 674ZM437 500V0H376L366 48Q359 39 348 29T301 4T221 -10Q148 -10 108 30T68 151V500H141V166Q141 43 245 43Q281 43 310 55T352 81L364 94V500H437Z" />
<glyph unicode="&#xfd;" glyph-name="yacute" horiz-adv-x="449" d="M281 721L344 706L242 571L204 576L281 721ZM24 -201Q43 -210 65 -210Q111 -210 142 -161T211 -6L15 500H101L249 82L383 500H436L263 -8Q242 -67 226 -106T186 -183T136 -241T76 -260Q58 -260
43 -257T22 -250L16 -247L24 -201Z" />
<glyph unicode="&#xfe;" glyph-name="thorn" horiz-adv-x="514" d="M260 463Q233 463 210 454T174 429T156 406T147 391V82Q151 76 160 67T195 48T253 37Q330 37 365 93T401 262Q401 463 260 463ZM73 -252V500H74V748L147 752V443H148Q149 446 152 450T165 466T190
487T228 503T281 511Q370 511 424 446T478 264Q478 138 425 64T272 -11Q192 -11 146 32V-250L73 -252Z" />
<glyph unicode="&#xff;" glyph-name="ydieresis" horiz-adv-x="449" d="M132 674Q145 684 158 684Q172 684 185 674Q196 661 196 644Q196 628 185 615Q172 605 158 605Q145 605 132 615Q121 626 121 644Q121 663 132 674ZM286 674Q299 684 312 684T338 674Q350
662 350 644Q350 627 338 615Q325 605 312 605T286 615Q275 626 275 644Q275 663 286 674ZM24 -201Q43 -210 65 -210Q111 -210 142 -161T211 -6L15 500H101L249 82L383 500H436L263 -8Q242 -67 226 -106T186 -183T136 -241T76 -260Q58 -260 43 -257T22 -250L16
-247L24 -201Z" />
</font>
</defs>
</svg>
